<svg width="189" height="170" viewBox="0 0 189 170" fill="none" xmlns="http://www.w3.org/2000/svg">
<path d="M189 74.8H94.499V17H124.874V34C124.874 35.3752 125.697 36.6153 126.958 37.1404C128.219 37.6671 129.67 37.3772 130.636 36.4043L134.999 32.0088L139.363 36.4043C140.681 37.7309 142.817 37.7309 144.136 36.4043L148.499 32.0088L152.862 36.4043C153.828 37.3772 155.279 37.6671 156.54 37.1404C157.801 36.6152 158.624 35.3752 158.624 34V17H188.999L189 74.8ZM124.874 91.8H94.499V81.6H124.874V91.8ZM131.624 81.6H151.875V107.391L150.886 106.396C149.568 105.069 147.431 105.069 146.113 106.396L141.75 110.791L137.386 106.396C136.068 105.069 133.932 105.069 132.613 106.396L131.625 107.391L131.624 81.6ZM158.625 81.6H189V91.8H158.625V81.6ZM131.624 0H151.875V25.7914L150.886 24.7957C149.568 23.4691 147.431 23.4691 146.113 24.7957L141.75 29.1912L137.386 24.7957C136.068 23.4691 133.932 23.4691 132.613 24.7957L131.625 25.7914L131.624 0ZM158.625 0H189V10.2H158.625V0ZM94.499 0H124.874V10.2H94.499V0ZM74.2488 64.6V57.8H80.9989V51H74.2488V44.2H87.749V151.43C85.6983 150.231 83.3703 149.6 80.9989 149.601H74.2488V71.4012H80.9989V64.6012L74.2488 64.6ZM60.0798 112.2H50.6236L55.6861 105.4H58.8517L60.0798 112.2ZM16.3163 81.6H54.5583L57.626 98.6H54.0008C52.9386 98.6 51.9381 99.1039 51.3008 99.96L42.1882 112.2H33.7506V102C33.7506 100.122 32.2394 98.6 30.3756 98.6H23.6255C22.3478 98.6 21.1786 99.3271 20.6076 100.479L14.7902 112.2H10.7945L16.3163 81.6ZM27.0003 112.2H22.3354L25.7104 105.4H27.0002L27.0003 112.2ZM10.1251 119H61.3099L66.8318 149.6H58.7738L39.5118 130.196C38.879 129.558 38.0202 129.2 37.1252 129.2H10.1249L10.1251 119ZM6.75007 170C4.9601 170 3.24242 169.284 1.97681 168.009C0.711187 166.734 0 165.003 0 163.2C0 161.397 0.711187 159.666 1.97681 158.391C3.24242 157.116 4.9601 156.4 6.75007 156.4C8.54003 156.4 10.2577 157.116 11.5233 158.391C12.789 159.666 13.5001 161.397 13.5001 163.2C13.4986 165.003 12.7859 166.731 11.5203 168.005C10.2547 169.28 8.53996 169.998 6.75007 170ZM20.1673 161.708C19.67 157.142 16.9173 153.136 12.849 151.063C8.77933 148.99 3.9459 149.128 0 151.429V136H35.7272L54.9891 155.404C55.622 156.042 56.4808 156.4 57.3758 156.4H69.3165C67.543 159.484 67.0443 163.148 67.9288 166.6H25.0253L20.1673 161.708ZM80.9989 170C79.2089 170 77.4913 169.284 76.2256 168.009C74.96 166.734 74.2488 165.003 74.2488 163.2C74.2488 161.397 74.96 159.666 76.2256 158.391C77.4913 157.116 79.2089 156.4 80.9989 156.4C82.7889 156.4 84.5065 157.116 85.7722 158.391C87.0378 159.666 87.749 161.397 87.749 163.2C87.7475 165.003 87.0348 166.731 85.7691 168.005C84.5035 169.28 82.7888 169.998 80.9989 170ZM178.875 166.6H94.0709C94.3557 165.489 94.4988 164.347 94.4988 163.2V159.8H161.452L178.874 165.65L178.875 166.6ZM162 153H94.499V98.6H124.874V115.6C124.874 116.975 125.697 118.215 126.958 118.74C128.219 119.267 129.67 118.977 130.636 118.004L134.999 113.609L139.363 118.004C140.681 119.331 142.817 119.331 144.136 118.004L148.499 113.609L152.862 118.004C153.828 118.977 155.279 119.267 156.54 118.74C157.801 118.215 158.624 116.975 158.624 115.6V98.6H188.999V153H162Z" fill="white"/>
</svg>
